<svg xmlns="http://www.w3.org/2000/svg" width="180" height="180" viewBox="0 0 180 180">
  <defs>
    <filter id="fabric-noise" x="0" y="0" width="100%" height="100%">
      <feTurbulence type="fractalNoise" baseFrequency="0.48" numOctaves="4" seed="18"/>
      <feColorMatrix type="matrix" values="
        0.11 0    0    0 0.76
        0    0.09 0    0 0.70
        0    0    0.07 0 0.61
        0    0    0    0.26 0"/>
    </filter>
    <pattern id="threads" width="24" height="24" patternUnits="userSpaceOnUse">
      <path d="M0 5.5H24 M0 17.5H24" stroke="#fff8ea" stroke-width="1.6" opacity="0.72"/>
      <path d="M6.5 0V24 M18.5 0V24" stroke="#ddcdb9" stroke-width="1.45" opacity="0.78"/>
      <path d="M0 11.5H24 M12.5 0V24" stroke="#c8b49b" stroke-width="0.9" opacity="0.48"/>
      <path d="M0 23.5H24 M23.5 0V24" stroke="#f2e5d2" stroke-width="0.7" opacity="0.62"/>
    </pattern>
  </defs>
  <rect width="180" height="180" fill="#f4eadb"/>
  <rect width="180" height="180" fill="url(#threads)" opacity="1"/>
  <rect width="180" height="180" filter="url(#fabric-noise)" opacity="0.7"/>
  <path d="M0 43c26 7 48-6 77-1 33 6 63 11 103 1M0 132c35-8 65 6 95 1 26-4 49-10 85-2"
    fill="none" stroke="#fff8e9" stroke-width="2" opacity="0.42"/>
  <path d="M38 0c-4 30 5 58 1 91-4 29-10 55-3 89M139 0c6 34-5 61-1 94 4 26 8 49 2 86"
    fill="none" stroke="#d0bda4" stroke-width="1.4" opacity="0.32"/>
</svg>
